<svg xmlns="http://www.w3.org/2000/svg" xmlns:xlink="http://www.w3.org/1999/xlink" width="500" zoomAndPan="magnify" viewBox="0 0 375 374.999991" height="500" preserveAspectRatio="xMidYMid meet" version="1.0"><defs><clipPath id="2b5abcba75"><path d="M 68 74 L 357.25 74 L 357.25 263 L 68 263 Z M 68 74 " clip-rule="nonzero"/></clipPath><clipPath id="57e5eaeebc"><path d="M 111 16.433594 L 126 16.433594 L 126 46 L 111 46 Z M 111 16.433594 " clip-rule="nonzero"/></clipPath><clipPath id="39857a7b04"><path d="M 17.5 110 L 47 110 L 47 125 L 17.5 125 Z M 17.5 110 " clip-rule="nonzero"/></clipPath><clipPath id="6902980166"><path d="M 69 74 L 357.25 74 L 357.25 246 L 69 246 Z M 69 74 " clip-rule="nonzero"/></clipPath></defs><path fill="#ffd747" d="M 118.6875 52.617188 C 149.050781 52.617188 175.414062 73.632812 182.191406 103.261719 L 184.292969 104.820312 C 182.9375 106.515625 181.71875 108.347656 180.632812 110.246094 C 173.382812 107.195312 165.519531 105.636719 157.65625 105.636719 C 132.988281 104.890625 110.894531 120.957031 104.046875 144.6875 C 93.273438 149.972656 84.125 158.042969 77.617188 168.078125 C 49.828125 145.296875 45.761719 104.277344 68.535156 76.480469 C 80.800781 61.363281 99.238281 52.683594 118.6875 52.617188 Z M 118.6875 52.617188 " fill-opacity="1" fill-rule="nonzero"/><g clip-path="url(#2b5abcba75)"><path fill="#8a90a0" d="M 212.691406 262.382812 L 136.917969 262.382812 C 98.898438 262.382812 68.128906 234.3125 68.128906 199.667969 C 68.128906 188.414062 71.382812 177.5 77.550781 168.078125 C 84.125 158.042969 93.273438 149.972656 103.980469 144.6875 C 110.894531 120.957031 132.921875 104.890625 157.589844 105.636719 C 165.453125 105.636719 173.3125 107.195312 180.566406 110.246094 C 181.648438 108.347656 182.871094 106.515625 184.226562 104.820312 C 199.136719 85.296875 222.449219 73.972656 247.050781 74.3125 C 288.9375 74.3125 322.824219 105.160156 322.824219 143.261719 C 322.824219 144.007812 322.753906 144.6875 322.6875 145.433594 C 343.425781 155.601562 356.777344 176.550781 357.25 199.667969 C 357.25 234.3125 326.480469 262.382812 288.460938 262.382812 Z M 212.691406 262.382812 " fill-opacity="1" fill-rule="nonzero"/></g><g clip-path="url(#57e5eaeebc)"><path fill="#ffd747" d="M 118.6875 45.429688 C 114.6875 45.429688 111.4375 42.175781 111.4375 38.175781 L 111.4375 23.734375 C 111.4375 19.734375 114.6875 16.480469 118.6875 16.480469 C 122.6875 16.480469 125.941406 19.734375 125.941406 23.734375 L 125.941406 38.175781 C 125.941406 42.175781 122.6875 45.429688 118.6875 45.429688 Z M 118.6875 45.429688 " fill-opacity="1" fill-rule="nonzero"/></g><path fill="#ffd747" d="M 174.941406 68.683594 C 170.941406 68.683594 167.6875 65.429688 167.6875 61.429688 C 167.6875 59.53125 168.433594 57.703125 169.789062 56.347656 L 179.957031 46.175781 C 182.800781 43.328125 187.34375 43.328125 190.1875 46.175781 C 193.035156 49.023438 193.035156 53.566406 190.1875 56.414062 L 180.023438 66.582031 C 178.734375 67.941406 176.90625 68.683594 174.941406 68.683594 Z M 174.941406 68.683594 " fill-opacity="1" fill-rule="nonzero"/><g clip-path="url(#39857a7b04)"><path fill="#ffd747" d="M 39.1875 124.957031 L 24.753906 124.957031 C 20.753906 124.957031 17.5 121.703125 17.5 117.703125 C 17.5 113.703125 20.753906 110.449219 24.753906 110.449219 L 39.1875 110.449219 C 43.1875 110.449219 46.441406 113.703125 46.441406 117.703125 C 46.441406 121.703125 43.1875 124.957031 39.1875 124.957031 Z M 39.1875 124.957031 " fill-opacity="1" fill-rule="nonzero"/></g><path fill="#ffd747" d="M 62.4375 68.683594 C 60.539062 68.683594 58.707031 67.941406 57.351562 66.582031 L 47.117188 56.414062 C 44.273438 53.566406 44.273438 49.023438 47.117188 46.175781 C 49.964844 43.328125 54.507812 43.328125 57.351562 46.175781 L 67.519531 56.347656 C 70.363281 59.125 70.363281 63.734375 67.585938 66.582031 C 66.230469 67.941406 64.402344 68.683594 62.4375 68.683594 Z M 62.4375 68.683594 " fill-opacity="1" fill-rule="nonzero"/><path fill="#fff566" d="M 125.941406 67.125 C 147.695312 67.125 168.027344 78.042969 180.089844 96.144531 C 168.296875 62.175781 131.226562 44.210938 97.269531 56.074219 C 63.316406 67.941406 45.355469 104.957031 57.21875 138.921875 C 59.046875 144.144531 61.488281 149.09375 64.535156 153.636719 C 52.675781 119.667969 70.636719 82.515625 104.589844 70.71875 C 111.4375 68.347656 118.6875 67.125 125.941406 67.125 Z M 125.941406 67.125 " fill-opacity="1" fill-rule="nonzero"/><path fill="#ffc247" d="M 77.480469 168.078125 C 84.054688 158.042969 93.203125 149.972656 103.914062 144.6875 C 110.824219 120.957031 132.851562 104.890625 157.523438 105.636719 C 165.382812 105.636719 173.246094 107.195312 180.496094 110.246094 C 181.582031 108.347656 182.800781 106.515625 184.15625 104.820312 L 182.191406 103.261719 C 181.109375 98.652344 179.546875 94.175781 177.515625 89.839844 C 177.378906 90.042969 177.246094 90.175781 177.109375 90.378906 C 175.753906 92.074219 174.535156 93.90625 173.449219 95.804688 C 166.195312 92.753906 158.335938 91.195312 150.472656 91.195312 C 125.804688 90.449219 103.710938 106.515625 96.863281 130.246094 C 86.089844 135.535156 76.9375 143.601562 70.433594 153.636719 C 69.484375 155.058594 68.738281 156.6875 67.925781 158.246094 C 70.636719 161.839844 73.890625 165.160156 77.480469 168.078125 Z M 77.480469 168.078125 " fill-opacity="1" fill-rule="nonzero"/><g clip-path="url(#6902980166)"><path fill="#bec3d2" d="M 357.25 199.667969 C 356.777344 176.550781 343.425781 155.601562 322.6875 145.433594 C 322.753906 144.6875 322.824219 144.007812 322.824219 143.261719 C 322.824219 105.226562 288.9375 74.3125 247.050781 74.3125 C 222.449219 73.972656 199.203125 85.296875 184.226562 104.820312 C 182.871094 106.515625 181.648438 108.347656 180.566406 110.246094 C 173.3125 107.195312 165.453125 105.636719 157.589844 105.636719 C 132.921875 104.890625 110.824219 120.957031 103.980469 144.6875 C 93.203125 149.972656 84.054688 158.042969 77.550781 168.078125 C 73.210938 174.789062 70.296875 182.382812 69.007812 190.246094 C 69.214844 190.179688 69.484375 189.976562 69.6875 189.90625 C 75.515625 169.296875 98.558594 153.90625 126.007812 153.90625 C 134.207031 153.90625 142.410156 155.332031 150.136719 158.179688 C 151.285156 156.414062 152.574219 154.71875 153.996094 153.160156 C 170.804688 134.585938 194.933594 124.347656 219.941406 124.957031 C 263.925781 124.957031 299.441406 153.433594 299.441406 188.617188 C 299.441406 189.296875 299.371094 189.976562 299.304688 190.652344 C 320.925781 200.550781 335.632812 219.261719 335.632812 240.6875 C 335.632812 242.3125 335.496094 243.941406 335.292969 245.570312 C 349.050781 234.246094 357.117188 217.433594 357.25 199.667969 Z M 357.25 199.667969 " fill-opacity="1" fill-rule="nonzero"/></g><path fill="#9da3b5" d="M 299.304688 190.585938 C 299.371094 189.90625 299.441406 189.296875 299.441406 188.617188 C 299.441406 153.5 263.859375 124.957031 219.941406 124.957031 C 194.867188 124.277344 170.804688 134.585938 153.996094 153.160156 C 152.574219 154.71875 151.285156 156.414062 150.136719 158.179688 C 142.410156 155.332031 134.207031 153.90625 126.007812 153.90625 C 98.558594 153.90625 75.515625 169.296875 69.6875 189.976562 C 69.484375 190.042969 69.214844 190.246094 69.007812 190.3125 C 67.652344 198.042969 67.992188 205.976562 69.890625 213.566406 C 71.042969 212.957031 72.128906 212.210938 73.28125 211.667969 C 80.191406 189.5 101.066406 174.71875 124.246094 175.601562 C 131.699219 175.601562 139.15625 177.09375 146.070312 179.871094 C 147.085938 178.109375 148.304688 176.414062 149.59375 174.855469 C 164.027344 156.6875 186.054688 146.3125 209.300781 146.652344 C 249.085938 146.652344 281.277344 175.128906 281.277344 210.3125 C 281.277344 210.992188 281.210938 211.667969 281.140625 212.347656 C 299.167969 220.890625 311.503906 238.246094 313.605469 258.042969 C 321.535156 255.195312 328.855469 250.992188 335.292969 245.570312 C 335.496094 243.941406 335.632812 242.3125 335.632812 240.6875 C 335.5625 219.195312 320.925781 200.550781 299.304688 190.585938 Z M 299.304688 190.585938 " fill-opacity="1" fill-rule="nonzero"/><path fill="#31c4ff" d="M 145.457031 336.078125 C 137.664062 343.875 125.058594 343.875 117.265625 336.078125 C 109.46875 328.28125 109.46875 315.671875 117.265625 307.875 C 125.058594 300.078125 154.878906 298.519531 154.878906 298.519531 C 154.878906 298.519531 153.253906 328.28125 145.457031 336.078125 Z M 145.457031 336.078125 " fill-opacity="1" fill-rule="nonzero"/><path fill="#31c4ff" d="M 65.960938 350.519531 C 57.960938 358.042969 45.355469 357.707031 37.832031 349.707031 C 30.582031 342.042969 30.582031 330.042969 37.832031 322.382812 C 45.628906 314.585938 75.378906 312.960938 75.378906 312.960938 C 75.378906 312.960938 73.753906 342.789062 65.960938 350.519531 Z M 65.960938 350.519531 " fill-opacity="1" fill-rule="nonzero"/><path fill="#31c4ff" d="M 109.335938 278.246094 C 101.335938 285.773438 88.730469 285.433594 81.207031 277.433594 C 73.957031 269.773438 73.957031 257.773438 81.207031 250.109375 C 89.003906 242.3125 118.753906 240.6875 118.753906 240.6875 C 118.753906 240.6875 117.128906 270.449219 109.335938 278.246094 Z M 109.335938 278.246094 " fill-opacity="1" fill-rule="nonzero"/><path fill="#ffd747" d="M 176.566406 356.347656 L 292.257812 262.316406 L 256.066406 262.316406 L 292.1875 226.179688 L 234.378906 226.179688 L 183.75 276.824219 L 227.125 276.824219 Z M 176.566406 356.347656 " fill-opacity="1" fill-rule="nonzero"/><path fill="#ff9500" d="M 234.378906 226.179688 L 183.75 276.824219 L 205.4375 276.824219 L 256.066406 226.179688 Z M 234.378906 226.179688 " fill-opacity="1" fill-rule="nonzero"/><path fill="#ff9500" d="M 227.125 276.824219 L 176.5 356.347656 L 221.433594 319.875 L 248.8125 276.824219 Z M 227.125 276.824219 " fill-opacity="1" fill-rule="nonzero"/><path fill="#707789" d="M 234.378906 226.179688 L 198.253906 226.179688 L 162.128906 262.316406 L 198.253906 262.316406 Z M 234.378906 226.179688 " fill-opacity="1" fill-rule="nonzero"/><path fill="#0091ff" d="M 124.515625 328.824219 C 118.28125 322.585938 116.925781 312.960938 121.195312 305.230469 C 119.773438 305.910156 118.417969 306.789062 117.265625 307.875 C 109.46875 315.671875 109.46875 328.28125 117.265625 336.078125 C 125.058594 343.875 137.664062 343.875 145.457031 336.078125 C 146.542969 334.925781 147.425781 333.570312 148.101562 332.144531 C 140.441406 336.417969 130.820312 335.0625 124.515625 328.824219 Z M 124.515625 328.824219 " fill-opacity="1" fill-rule="nonzero"/><path fill="#0091ff" d="M 88.394531 270.992188 C 82.15625 264.753906 80.800781 255.128906 85.070312 247.398438 C 83.648438 248.078125 82.292969 248.957031 81.140625 250.042969 C 73.550781 257.976562 73.753906 270.585938 81.683594 278.179688 C 89.410156 285.570312 101.542969 285.570312 109.265625 278.179688 C 110.351562 277.027344 111.234375 275.671875 111.910156 274.246094 C 104.253906 278.585938 94.628906 277.230469 88.394531 270.992188 Z M 88.394531 270.992188 " fill-opacity="1" fill-rule="nonzero"/><path fill="#0091ff" d="M 45.019531 343.332031 C 38.78125 337.09375 37.425781 327.46875 41.695312 319.738281 C 40.273438 320.417969 38.917969 321.296875 37.765625 322.382812 C 29.972656 330.179688 29.972656 342.789062 37.765625 350.585938 C 45.558594 358.382812 58.164062 358.382812 65.960938 350.585938 C 67.042969 349.433594 67.925781 348.078125 68.601562 346.65625 C 60.945312 350.925781 51.253906 349.570312 45.019531 343.332031 Z M 45.019531 343.332031 " fill-opacity="1" fill-rule="nonzero"/><path fill="#f6fafd" d="M 283.820312 107.234375 C 284.589844 108.003906 285.292969 108.816406 285.941406 109.675781 C 286.585938 110.539062 287.15625 111.429688 287.65625 112.347656 C 288.15625 113.269531 288.570312 114.203125 288.902344 115.144531 C 289.234375 116.089844 289.480469 117.03125 289.632812 117.960938 C 289.785156 118.894531 289.847656 119.804688 289.816406 120.6875 C 289.785156 121.574219 289.660156 122.417969 289.445312 123.21875 C 289.230469 124.023438 288.929688 124.769531 288.539062 125.460938 C 288.148438 126.148438 287.679688 126.769531 287.128906 127.320312 C 286.578125 127.871094 285.957031 128.34375 285.265625 128.734375 C 284.578125 129.125 283.832031 129.425781 283.027344 129.640625 C 282.226562 129.855469 281.382812 129.980469 280.496094 130.011719 C 279.613281 130.042969 278.703125 129.980469 277.773438 129.828125 C 276.839844 129.671875 275.902344 129.429688 274.957031 129.097656 C 274.011719 128.765625 273.082031 128.351562 272.160156 127.851562 C 271.242188 127.351562 270.351562 126.78125 269.488281 126.132812 C 268.628906 125.488281 267.816406 124.78125 267.046875 124.011719 C 266.28125 123.246094 265.574219 122.429688 264.925781 121.570312 C 264.28125 120.710938 263.710938 119.820312 263.210938 118.898438 C 262.710938 117.976562 262.296875 117.046875 261.964844 116.101562 C 261.632812 115.15625 261.386719 114.21875 261.234375 113.285156 C 261.082031 112.351562 261.019531 111.445312 261.050781 110.558594 C 261.082031 109.675781 261.207031 108.832031 261.421875 108.027344 C 261.636719 107.222656 261.9375 106.476562 262.328125 105.789062 C 262.71875 105.097656 263.191406 104.476562 263.742188 103.925781 C 264.289062 103.375 264.910156 102.90625 265.601562 102.515625 C 266.289062 102.125 267.035156 101.820312 267.839844 101.605469 C 268.640625 101.390625 269.484375 101.269531 270.371094 101.238281 C 271.253906 101.207031 272.164062 101.265625 273.09375 101.421875 C 274.027344 101.574219 274.964844 101.816406 275.910156 102.148438 C 276.855469 102.480469 277.785156 102.898438 278.707031 103.394531 C 279.625 103.894531 280.515625 104.46875 281.378906 105.113281 C 282.238281 105.757812 283.050781 106.464844 283.820312 107.234375 Z M 283.820312 107.234375 " fill-opacity="1" fill-rule="nonzero"/><path fill="#f6fafd" d="M 301.359375 133.214844 C 301.742188 133.597656 302.097656 134.003906 302.417969 134.433594 C 302.742188 134.867188 303.027344 135.3125 303.277344 135.773438 C 303.523438 136.234375 303.730469 136.699219 303.898438 137.171875 C 304.0625 137.648438 304.183594 138.117188 304.257812 138.585938 C 304.335938 139.050781 304.363281 139.507812 304.347656 139.949219 C 304.332031 140.394531 304.265625 140.816406 304.160156 141.222656 C 304.050781 141.625 303.898438 142 303.699219 142.34375 C 303.503906 142.691406 303.265625 143.003906 302.988281 143.28125 C 302.710938 143.558594 302.402344 143.792969 302.054688 143.992188 C 301.707031 144.1875 301.332031 144.339844 300.929688 144.449219 C 300.527344 144.558594 300.105469 144.621094 299.660156 144.636719 C 299.21875 144.65625 298.761719 144.625 298.296875 144.550781 C 297.828125 144.476562 297.359375 144.355469 296.882812 144.1875 C 296.410156 144.023438 295.945312 143.816406 295.484375 143.566406 C 295.023438 143.320312 294.578125 143.03125 294.148438 142.710938 C 293.71875 142.386719 293.308594 142.035156 292.925781 141.652344 C 292.542969 141.265625 292.1875 140.859375 291.867188 140.429688 C 291.542969 139.996094 291.257812 139.550781 291.007812 139.089844 C 290.761719 138.628906 290.554688 138.164062 290.386719 137.691406 C 290.222656 137.21875 290.101562 136.746094 290.027344 136.28125 C 289.949219 135.8125 289.921875 135.355469 289.9375 134.914062 C 289.957031 134.46875 290.019531 134.046875 290.128906 133.644531 C 290.234375 133.238281 290.390625 132.867188 290.585938 132.519531 C 290.78125 132.171875 291.019531 131.859375 291.296875 131.582031 C 291.574219 131.304688 291.886719 131.070312 292.230469 130.871094 C 292.578125 130.675781 292.953125 130.523438 293.355469 130.414062 C 293.757812 130.304688 294.179688 130.242188 294.625 130.226562 C 295.066406 130.207031 295.523438 130.238281 295.992188 130.3125 C 296.457031 130.390625 296.929688 130.507812 297.402344 130.675781 C 297.875 130.839844 298.339844 131.046875 298.800781 131.296875 C 299.261719 131.542969 299.707031 131.832031 300.136719 132.152344 C 300.570312 132.476562 300.976562 132.828125 301.359375 133.214844 Z M 301.359375 133.214844 " fill-opacity="1" fill-rule="nonzero"/><path fill="#f6fafd" d="M 142.316406 75.320312 C 142.699219 75.703125 143.050781 76.109375 143.375 76.539062 C 143.695312 76.972656 143.984375 77.417969 144.230469 77.878906 C 144.480469 78.339844 144.6875 78.804688 144.851562 79.277344 C 145.019531 79.753906 145.136719 80.222656 145.214844 80.691406 C 145.289062 81.15625 145.320312 81.613281 145.300781 82.058594 C 145.285156 82.5 145.222656 82.921875 145.113281 83.328125 C 145.003906 83.730469 144.851562 84.105469 144.65625 84.449219 C 144.457031 84.796875 144.222656 85.109375 143.945312 85.386719 C 143.667969 85.664062 143.355469 85.898438 143.007812 86.097656 C 142.664062 86.292969 142.289062 86.445312 141.886719 86.554688 C 141.484375 86.664062 141.058594 86.726562 140.617188 86.746094 C 140.171875 86.761719 139.71875 86.730469 139.25 86.65625 C 138.78125 86.582031 138.3125 86.460938 137.839844 86.292969 C 137.367188 86.128906 136.898438 85.921875 136.4375 85.671875 C 135.976562 85.425781 135.53125 85.140625 135.101562 84.816406 C 134.671875 84.492188 134.265625 84.140625 133.878906 83.757812 C 133.496094 83.371094 133.144531 82.964844 132.820312 82.535156 C 132.5 82.105469 132.210938 81.65625 131.964844 81.195312 C 131.714844 80.734375 131.507812 80.269531 131.34375 79.796875 C 131.175781 79.324219 131.058594 78.851562 130.980469 78.386719 C 130.90625 77.917969 130.875 77.460938 130.894531 77.019531 C 130.910156 76.574219 130.972656 76.152344 131.082031 75.75 C 131.191406 75.347656 131.34375 74.972656 131.539062 74.625 C 131.738281 74.277344 131.972656 73.964844 132.25 73.6875 C 132.527344 73.410156 132.839844 73.175781 133.1875 72.976562 C 133.53125 72.78125 133.90625 72.628906 134.308594 72.519531 C 134.710938 72.410156 135.136719 72.347656 135.578125 72.332031 C 136.023438 72.3125 136.476562 72.34375 136.945312 72.417969 C 137.414062 72.496094 137.882812 72.613281 138.355469 72.78125 C 138.828125 72.945312 139.296875 73.152344 139.757812 73.402344 C 140.21875 73.652344 140.664062 73.9375 141.09375 74.257812 C 141.523438 74.582031 141.929688 74.933594 142.316406 75.320312 Z M 142.316406 75.320312 " fill-opacity="1" fill-rule="nonzero"/><path fill="#f6fafd" d="M 123.898438 73.753906 C 124.289062 74.144531 124.605469 74.570312 124.859375 75.035156 C 125.109375 75.5 125.273438 75.96875 125.347656 76.441406 C 125.425781 76.914062 125.410156 77.351562 125.300781 77.757812 C 125.1875 78.167969 124.996094 78.507812 124.714844 78.789062 C 124.433594 79.070312 124.09375 79.265625 123.683594 79.375 C 123.277344 79.484375 122.839844 79.5 122.367188 79.425781 C 121.894531 79.347656 121.425781 79.183594 120.960938 78.933594 C 120.496094 78.679688 120.070312 78.363281 119.683594 77.972656 C 119.296875 77.585938 118.976562 77.160156 118.722656 76.695312 C 118.472656 76.230469 118.308594 75.761719 118.234375 75.289062 C 118.15625 74.816406 118.171875 74.378906 118.285156 73.96875 C 118.394531 73.5625 118.589844 73.21875 118.867188 72.941406 C 119.148438 72.660156 119.492188 72.464844 119.898438 72.355469 C 120.304688 72.246094 120.742188 72.230469 121.214844 72.304688 C 121.6875 72.382812 122.15625 72.546875 122.621094 72.796875 C 123.085938 73.046875 123.511719 73.367188 123.898438 73.753906 Z M 123.898438 73.753906 " fill-opacity="1" fill-rule="nonzero"/><path fill="#f6fafd" d="M 109.359375 261.851562 C 109.746094 262.238281 110.066406 262.664062 110.316406 263.128906 C 110.566406 263.59375 110.730469 264.0625 110.808594 264.535156 C 110.882812 265.007812 110.867188 265.449219 110.757812 265.855469 C 110.648438 266.261719 110.453125 266.605469 110.171875 266.882812 C 109.894531 267.164062 109.550781 267.359375 109.144531 267.46875 C 108.738281 267.578125 108.296875 267.597656 107.824219 267.519531 C 107.355469 267.441406 106.886719 267.277344 106.421875 267.027344 C 105.953125 266.777344 105.527344 266.457031 105.140625 266.070312 C 104.753906 265.679688 104.433594 265.253906 104.183594 264.789062 C 103.929688 264.324219 103.769531 263.855469 103.691406 263.382812 C 103.613281 262.910156 103.632812 262.472656 103.742188 262.066406 C 103.851562 261.660156 104.046875 261.316406 104.324219 261.035156 C 104.605469 260.757812 104.949219 260.5625 105.355469 260.449219 C 105.761719 260.339844 106.203125 260.324219 106.671875 260.402344 C 107.144531 260.476562 107.613281 260.640625 108.078125 260.890625 C 108.542969 261.144531 108.96875 261.460938 109.359375 261.851562 Z M 109.359375 261.851562 " fill-opacity="1" fill-rule="nonzero"/><path fill="#f6fafd" d="M 261.238281 240.191406 C 261.625 240.578125 261.945312 241.007812 262.195312 241.472656 C 262.449219 241.9375 262.613281 242.40625 262.6875 242.878906 C 262.765625 243.351562 262.746094 243.789062 262.636719 244.195312 C 262.527344 244.601562 262.332031 244.945312 262.054688 245.226562 C 261.773438 245.503906 261.429688 245.699219 261.023438 245.808594 C 260.617188 245.921875 260.179688 245.9375 259.707031 245.859375 C 259.234375 245.785156 258.765625 245.621094 258.300781 245.371094 C 257.835938 245.117188 257.410156 244.796875 257.019531 244.410156 C 256.632812 244.023438 256.3125 243.597656 256.0625 243.132812 C 255.8125 242.664062 255.648438 242.195312 255.570312 241.726562 C 255.496094 241.253906 255.511719 240.8125 255.621094 240.40625 C 255.730469 240 255.925781 239.65625 256.207031 239.378906 C 256.484375 239.097656 256.828125 238.902344 257.234375 238.792969 C 257.644531 238.683594 258.082031 238.664062 258.554688 238.742188 C 259.027344 238.820312 259.492188 238.980469 259.960938 239.234375 C 260.425781 239.484375 260.851562 239.804688 261.238281 240.191406 Z M 261.238281 240.191406 " fill-opacity="1" fill-rule="nonzero"/><path fill="#f6fafd" d="M 145.5 319.652344 C 145.886719 320.039062 146.207031 320.464844 146.457031 320.933594 C 146.707031 321.398438 146.871094 321.867188 146.949219 322.339844 C 147.027344 322.808594 147.007812 323.25 146.898438 323.65625 C 146.789062 324.0625 146.59375 324.40625 146.3125 324.6875 C 146.035156 324.964844 145.691406 325.160156 145.285156 325.269531 C 144.878906 325.378906 144.4375 325.398438 143.96875 325.320312 C 143.496094 325.246094 143.027344 325.082031 142.5625 324.828125 C 142.097656 324.578125 141.671875 324.257812 141.28125 323.871094 C 140.894531 323.484375 140.574219 323.058594 140.324219 322.589844 C 140.074219 322.125 139.910156 321.65625 139.832031 321.183594 C 139.757812 320.714844 139.773438 320.273438 139.882812 319.867188 C 139.992188 319.460938 140.1875 319.117188 140.46875 318.835938 C 140.746094 318.558594 141.089844 318.363281 141.496094 318.253906 C 141.902344 318.144531 142.34375 318.125 142.816406 318.203125 C 143.285156 318.277344 143.753906 318.441406 144.21875 318.695312 C 144.683594 318.945312 145.113281 319.265625 145.5 319.652344 Z M 145.5 319.652344 " fill-opacity="1" fill-rule="nonzero"/><path fill="#f6fafd" d="M 65.941406 334.109375 C 66.328125 334.496094 66.648438 334.921875 66.898438 335.390625 C 67.148438 335.855469 67.3125 336.324219 67.390625 336.796875 C 67.464844 337.265625 67.449219 337.707031 67.339844 338.113281 C 67.230469 338.519531 67.035156 338.863281 66.753906 339.144531 C 66.476562 339.421875 66.132812 339.617188 65.726562 339.726562 C 65.320312 339.835938 64.878906 339.855469 64.40625 339.777344 C 63.933594 339.703125 63.46875 339.539062 63 339.285156 C 62.535156 339.035156 62.109375 338.714844 61.722656 338.328125 C 61.335938 337.941406 61.015625 337.515625 60.765625 337.046875 C 60.511719 336.582031 60.347656 336.113281 60.273438 335.644531 C 60.195312 335.171875 60.214844 334.730469 60.324219 334.324219 C 60.433594 333.917969 60.628906 333.574219 60.90625 333.292969 C 61.1875 333.015625 61.53125 332.820312 61.9375 332.710938 C 62.34375 332.601562 62.785156 332.582031 63.253906 332.660156 C 63.726562 332.734375 64.195312 332.898438 64.660156 333.152344 C 65.125 333.402344 65.550781 333.722656 65.941406 334.109375 Z M 65.941406 334.109375 " fill-opacity="1" fill-rule="nonzero"/></svg>