<svg width="24" height="24" viewBox="0 0 24 24" fill="none" xmlns="http://www.w3.org/2000/svg">
<path d="M19.0917 12.2033C21.2026 6.34008 10.8199 3.23918 9.0975 10.1014C9.07766 10.1805 9.00992 10.2446 8.92978 10.2593C3.83216 11.197 4.09156 18.2934 10.5706 17.9368C12.081 17.8537 16.2773 17.9581 18.2132 17.9581C23.1089 18.2429 22.7034 12.696 19.2906 12.5049C19.144 12.4966 19.0419 12.3415 19.0917 12.2033Z" stroke="#d6e4f0" stroke-width="1.5"/>
<path d="M10 4.77095C9.66219 3.22415 8.56725 1.95192 7.11466 1.34133C6.52682 1.0929 6.22114 1.36946 6.47509 1.95069C6.70552 2.47568 6.8325 3.05224 6.82779 3.6616C6.81839 5.92562 4.9373 7.84277 2.63768 7.93651C2.29908 7.95058 1.97459 7.92714 1.65951 7.87089C1.01524 7.75371 0.808319 8.10057 1.19394 8.62088C1.71783 9.33559 2.43823 9.90339 3.27724 10.25" stroke="#d6e4f0" stroke-width="1.5" stroke-linecap="round" stroke-linejoin="round"/>
<path d="M19.1984 20.106L18.0881 22.0469" stroke="#d6e4f0" stroke-width="1.5" stroke-linecap="round"/>
<path d="M14 19.75L13.2073 20.9391C13.1187 21.072 13.214 21.25 13.3737 21.25H14.1263C14.286 21.25 14.3813 21.428 14.2927 21.5609L13.5 22.75" stroke="#d6e4f0" stroke-width="1.2" stroke-linecap="round"/>
<path d="M9.39834 20.106L8.28807 22.0469" stroke="#d6e4f0" stroke-width="1.5" stroke-linecap="round"/>
</svg>
